<svg version="1.1" id="Layer_1" xmlns="http://www.w3.org/2000/svg" xmlns:xlink="http://www.w3.org/1999/xlink" x="0px" y="0px"
	 width="100%" viewBox="0 0 136 130" enable-background="new 0 0 136 130" xml:space="preserve">
<path fill="#FEFEFE" opacity="1.000000" stroke="none" 
	d="
M74.000000,131.000000 
	C49.333332,131.000000 25.166666,131.000000 1.000000,131.000000 
	C1.000000,87.666664 1.000000,44.333332 1.000000,1.000000 
	C46.333332,1.000000 91.666664,1.000000 137.000000,1.000000 
	C137.000000,44.333332 137.000000,87.666664 137.000000,131.000000 
	C116.166664,131.000000 95.333336,131.000000 74.000000,131.000000 
M41.422382,14.813940 
	C27.377584,24.922438 21.500433,39.223347 21.104979,55.926544 
	C20.718632,72.245155 20.755175,88.587219 21.198835,104.902863 
	C21.313467,109.118446 22.913969,113.720528 25.121111,117.364128 
	C29.828794,125.135689 41.808456,126.708572 50.707409,120.796570 
	C52.418701,119.659668 56.026703,119.417450 57.670559,120.467529 
	C66.299393,125.979485 71.785637,126.369980 80.453629,120.658913 
	C83.064690,118.938568 84.738457,118.968262 87.494255,120.758476 
	C97.994827,127.579842 109.297348,126.092308 114.795044,114.279877 
	C116.776703,110.022026 115.972672,104.386185 116.115944,99.369942 
	C116.500221,85.915527 117.065033,72.450150 116.839439,59.001179 
	C116.725105,52.185089 115.801422,45.184643 113.946175,38.635078 
	C109.476219,22.854849 98.574066,12.853114 83.161064,7.942447 
	C68.491928,3.268780 54.768826,6.007252 41.422382,14.813940 
z"/>
<path fill="#E6E3F8" opacity="1.000000" stroke="none" 
	d="
M41.745159,14.640114 
	C54.768826,6.007252 68.491928,3.268780 83.161064,7.942447 
	C98.574066,12.853114 109.476219,22.854849 113.946175,38.635078 
	C115.801422,45.184643 116.725105,52.185089 116.839439,59.001179 
	C117.065033,72.450150 116.500221,85.915527 116.115944,99.369942 
	C115.972672,104.386185 116.776703,110.022026 114.795044,114.279877 
	C109.297348,126.092308 97.994827,127.579842 87.494255,120.758476 
	C84.738457,118.968262 83.064690,118.938568 80.453629,120.658913 
	C71.785637,126.369980 66.299393,125.979485 57.670559,120.467529 
	C56.026703,119.417450 52.418701,119.659668 50.707409,120.796570 
	C41.808456,126.708572 29.828794,125.135689 25.121111,117.364128 
	C22.913969,113.720528 21.313467,109.118446 21.198835,104.902863 
	C20.755175,88.587219 20.718632,72.245155 21.104979,55.926544 
	C21.500433,39.223347 27.377584,24.922438 41.745159,14.640114 
M35.949238,102.819229 
	C39.541321,111.680817 48.649151,114.404259 55.888538,108.458992 
	C58.467712,106.340858 59.923466,107.613403 61.910519,108.894814 
	C66.583946,111.908615 71.660759,112.474136 76.240936,109.261612 
	C79.544891,106.944229 81.798943,107.230911 84.930000,109.411118 
	C91.118195,113.720108 101.576271,110.311165 103.811157,101.951508 
	C104.156136,101.261688 104.501122,100.571861 104.886551,99.081314 
	C104.882309,97.751350 104.878067,96.421394 104.971535,94.194008 
	C104.651711,83.667519 104.236664,73.142555 104.068451,62.613647 
	C104.016052,59.334072 105.300781,55.941174 104.815582,52.777737 
	C103.364449,43.316540 100.435272,34.535526 92.601814,27.977913 
	C82.691528,19.681732 71.897148,16.833672 59.403111,20.723743 
	C46.711258,24.675406 38.016651,33.298676 36.319313,46.022255 
	C34.249142,61.540646 34.776207,77.405510 34.130024,93.827194 
	C34.393921,95.219513 34.657818,96.611832 34.415318,98.453804 
	C34.898392,99.667610 35.381470,100.881424 35.949238,102.819229 
z"/>
<path fill="#C6BCF6" opacity="1.000000" stroke="none" 
	d="
M34.179970,93.120514 
	C34.776207,77.405510 34.249142,61.540646 36.319313,46.022255 
	C38.016651,33.298676 46.711258,24.675406 59.403111,20.723743 
	C71.897148,16.833672 82.691528,19.681732 92.601814,27.977913 
	C100.435272,34.535526 103.364449,43.316540 104.815582,52.777737 
	C105.300781,55.941174 104.016052,59.334072 104.068451,62.613647 
	C104.236664,73.142555 104.651711,83.667519 104.608459,94.570953 
	C102.885178,94.751755 101.005943,93.882820 100.248138,94.467476 
	C94.907928,98.587433 89.706421,98.876030 83.820114,95.467918 
	C82.124054,94.485916 78.912918,94.477226 77.213577,95.449921 
	C71.943069,98.466759 66.966225,98.879395 62.014168,95.330559 
	C59.171677,93.293526 56.843975,93.820526 54.386444,95.800728 
	C48.930973,100.196556 43.270115,97.546776 38.641552,94.193886 
	C37.496189,93.364212 35.685059,93.453606 34.179970,93.120514 
M82.392334,45.861153 
	C85.104019,45.043667 87.908630,43.611691 86.767693,40.494015 
	C86.043922,38.516281 83.481117,36.969730 81.423843,35.783340 
	C78.880898,34.316864 76.692352,34.877579 74.496658,37.371643 
	C70.721100,41.660259 74.817375,44.127747 75.270523,47.284660 
	C72.649521,48.091331 70.028511,48.898003 66.671555,49.142769 
	C66.121712,48.924263 65.571877,48.705757 65.024658,47.832386 
	C64.656403,46.587612 64.288155,45.342838 64.559929,43.725765 
	C66.913719,39.441433 65.135132,36.074039 59.163204,35.004734 
	C54.471500,34.264526 51.902515,37.659927 51.591049,40.999073 
	C51.046093,46.841370 56.794399,46.391918 60.676853,47.539219 
	C60.268181,47.857582 59.859509,48.175945 59.450836,48.494312 
	C60.670246,50.312466 61.889656,52.130623 63.638359,54.388374 
	C64.617859,55.007149 65.700180,56.267044 66.558380,56.129417 
	C69.638863,55.635410 72.936501,55.194050 75.585243,53.716621 
	C77.745483,52.511673 78.743004,49.814728 77.174339,46.888355 
	C77.531021,46.429909 77.887703,45.971458 78.913673,45.631367 
	C79.814079,45.692169 80.714493,45.752975 82.392334,45.861153 
z"/>
<path fill="#A298E6" opacity="1.000000" stroke="none" 
	d="
M34.154999,93.473854 
	C35.685059,93.453606 37.496189,93.364212 38.641552,94.193886 
	C43.270115,97.546776 48.930973,100.196556 54.386444,95.800728 
	C56.843975,93.820526 59.171677,93.293526 62.014168,95.330559 
	C66.966225,98.879395 71.943069,98.466759 77.213577,95.449921 
	C78.912918,94.477226 82.124054,94.485916 83.820114,95.467918 
	C89.706421,98.876030 94.907928,98.587433 100.248138,94.467476 
	C101.005943,93.882820 102.885178,94.751755 104.559601,95.019669 
	C104.878067,96.421394 104.882309,97.751350 104.556252,99.560028 
	C103.887077,100.737648 103.548195,101.436546 103.209312,102.135452 
	C101.576271,110.311165 91.118195,113.720108 84.930000,109.411118 
	C81.798943,107.230911 79.544891,106.944229 76.240936,109.261612 
	C71.660759,112.474136 66.583946,111.908615 61.910519,108.894814 
	C59.923466,107.613403 58.467712,106.340858 55.888538,108.458992 
	C48.649151,114.404259 39.541321,111.680817 35.953735,102.079681 
	C35.612728,100.228142 35.267223,99.116142 34.921715,98.004150 
	C34.657818,96.611832 34.393921,95.219513 34.154999,93.473854 
z"/>
<path fill="#C6BCF6" opacity="1.000000" stroke="none" 
	d="
M34.668518,98.228973 
	C35.267223,99.116142 35.612728,100.228142 35.911388,101.717682 
	C35.381470,100.881424 34.898392,99.667610 34.668518,98.228973 
z"/>
<path fill="#C6BCF6" opacity="1.000000" stroke="none" 
	d="
M103.510239,102.043480 
	C103.548195,101.436546 103.887077,100.737648 104.536026,99.960388 
	C104.501122,100.571861 104.156136,101.261688 103.510239,102.043480 
z"/>
<path fill="#AC6273" opacity="1.000000" stroke="none" 
	d="
M67.407509,49.704674 
	C70.028511,48.898003 72.649521,48.091331 75.766205,47.313126 
	C76.261894,47.341591 76.414612,47.345726 76.414612,47.345726 
	C78.743004,49.814728 77.745483,52.511673 75.585243,53.716621 
	C72.936501,55.194050 69.638863,55.635410 66.558380,56.129417 
	C65.700180,56.267044 64.617859,55.007149 63.368008,53.838665 
	C63.114708,52.849983 63.131756,52.411015 63.558121,51.992840 
	C66.127632,51.858253 68.287834,51.702869 70.448029,51.547485 
	C70.459999,51.231659 70.471962,50.915833 70.483932,50.600006 
	C69.458458,50.301563 68.432983,50.003117 67.407509,49.704674 
z"/>
<path fill="#BEB1D2" opacity="1.000000" stroke="none" 
	d="
M63.148811,51.972042 
	C63.131756,52.411015 63.114708,52.849983 63.103363,53.618866 
	C61.889656,52.130623 60.670246,50.312466 59.450836,48.494312 
	C59.859509,48.175945 60.268181,47.857582 60.676853,47.539219 
	C56.794399,46.391918 51.046093,46.841370 51.591049,40.999073 
	C51.902515,37.659927 54.471500,34.264526 59.566414,35.371773 
	C59.945900,36.219547 59.922173,36.700279 59.502655,37.139610 
	C58.461571,37.115494 57.374371,36.916573 57.242916,37.185257 
	C56.406818,38.894165 55.243519,40.723438 55.299564,42.477539 
	C55.330513,43.446281 57.522717,44.345978 58.740631,45.276798 
	C59.438747,43.667725 60.214535,42.086216 60.799847,40.437103 
	C61.063778,39.693493 60.948086,38.815136 61.357246,38.045425 
	C62.090996,39.396683 62.425156,40.716793 62.871407,41.997856 
	C63.126705,42.730740 63.564350,43.400105 63.919899,44.098068 
	C64.288155,45.342838 64.656403,46.587612 64.681946,48.121056 
	C63.942432,49.597164 63.545624,50.784603 63.148811,51.972042 
z"/>
<path fill="#D3CBE1" opacity="1.000000" stroke="none" 
	d="
M76.794479,47.117043 
	C76.414612,47.345726 76.261894,47.341591 76.195587,47.309830 
	C74.817375,44.127747 70.721100,41.660259 74.496658,37.371643 
	C76.692352,34.877579 78.880898,34.316864 81.423843,35.783340 
	C83.481117,36.969730 86.043922,38.516281 86.767693,40.494015 
	C87.908630,43.611691 85.104019,45.043667 82.122772,45.511955 
	C81.865311,43.430725 82.196663,41.616764 81.780380,39.994663 
	C81.489235,38.860153 80.221336,37.250629 79.307251,37.194447 
	C78.279388,37.131275 76.184387,38.685181 76.258575,39.343475 
	C76.495750,41.447857 77.522491,43.463257 78.244392,45.513008 
	C77.887703,45.971458 77.531021,46.429909 76.794479,47.117043 
z"/>
<path fill="#6C4D71" opacity="1.000000" stroke="none" 
	d="
M78.579033,45.572189 
	C77.522491,43.463257 76.495750,41.447857 76.258575,39.343475 
	C76.184387,38.685181 78.279388,37.131275 79.307251,37.194447 
	C80.221336,37.250629 81.489235,38.860153 81.780380,39.994663 
	C82.196663,41.616764 81.865311,43.430725 81.734055,45.488266 
	C80.714493,45.752975 79.814079,45.692169 78.579033,45.572189 
z"/>
<path fill="#D7D0F2" opacity="1.000000" stroke="none" 
	d="
M64.239914,43.911919 
	C63.564350,43.400105 63.126705,42.730740 62.871407,41.997856 
	C62.425156,40.716793 62.090996,39.396683 61.134834,37.967018 
	C60.280132,37.680408 60.059681,37.460381 59.898449,37.181015 
	C59.922173,36.700279 59.945900,36.219547 59.964935,35.378010 
	C65.135132,36.074039 66.913719,39.441433 64.239914,43.911919 
z"/>
<path fill="#5C2D57" opacity="1.000000" stroke="none" 
	d="
M63.558125,51.992840 
	C63.545624,50.784603 63.942432,49.597164 64.680634,48.448486 
	C65.571877,48.705757 66.121712,48.924263 67.039536,49.423721 
	C68.432983,50.003117 69.458458,50.301563 70.483932,50.600006 
	C70.471962,50.915833 70.459999,51.231659 70.448029,51.547485 
	C68.287834,51.702869 66.127632,51.858253 63.558125,51.992840 
z"/>
<path fill="#624066" opacity="1.000000" stroke="none" 
	d="
M59.502655,37.139610 
	C60.059681,37.460381 60.280132,37.680408 60.782219,37.919510 
	C60.948086,38.815136 61.063778,39.693493 60.799847,40.437103 
	C60.214535,42.086216 59.438747,43.667725 58.740631,45.276798 
	C57.522717,44.345978 55.330513,43.446281 55.299564,42.477539 
	C55.243519,40.723438 56.406818,38.894165 57.242916,37.185257 
	C57.374371,36.916573 58.461571,37.115494 59.502655,37.139610 
z"/>
</svg>